# xmcd CD database file
#
# Track frame offsets:
#	183
#	18153
#	47383
#	66925
#
# Disc length: 1144 seconds
#
# Revision: 0
# Processed by: cddbd v1.5.1PL0 Copyright (c) Steve Scherf et al.
# Submitted via: CDex 1.51
#
DISCID=27047604
DTITLE=Billi Myer - Send me an angel (Maxi-CD)
DYEAR=1991
DGENRE=Blues
TTITLE0=Send me an angel (Album-Mix)
TTITLE1=Send me an angel (Downtown night mix)
TTITLE2=Send me an angel (The longing-version)
TTITLE3=Try now
EXTD=YEAR: 1991
EXTT0=
EXTT1=
EXTT2=
EXTT3=
PLAYORDER=
